<?xml version="1.0" encoding="UTF-8"?>
<svg width="48px" height="41px" viewBox="0 0 48 41" version="1.1" xmlns="http://www.w3.org/2000/svg" xmlns:xlink="http://www.w3.org/1999/xlink">
    <!-- Generator: Sketch 52.6 (67491) - http://www.bohemiancoding.com/sketch -->
    <title>Group 11</title>
    <desc>Created with Sketch.</desc>
    <g id="Page-1" stroke="none" stroke-width="1" fill="none" fill-rule="evenodd">
        <g id="Mobile---Home" transform="translate(-197.000000, -535.000000)" fill-rule="nonzero">
            <g id="Group-13" transform="translate(198.000000, 536.000000)">
                <g id="Group-12">
                    <g id="Group-11">
                        <path d="M17.3816019,23.9730169 L17.3816019,15.1877831 C17.3816019,14.895514 17.6185328,14.6585831 17.9108019,14.6585831 C18.0007364,14.6585831 18.0891872,14.681503 18.1678041,14.725179 L26.0745146,19.117796 C26.3300038,19.2597344 26.4220548,19.5819131 26.2801164,19.8374022 C26.2321238,19.9237889 26.1609013,19.9950115 26.0745146,20.043004 L18.1678041,24.435621 C17.912315,24.5775594 17.5901363,24.4855083 17.4481979,24.2300192 C17.4045218,24.1514023 17.3816019,24.0629514 17.3816019,23.9730169 Z" id="Path-11" fill="#F4E5DF"></path>
                        <path d="M19.3424247,39.1608 C25.3284765,39.1608 30.6794183,36.4081154 34.2273947,32.08497 C35.4773225,30.5619555 35.0188245,7.78909314 33.124142,5.84162067 C29.6159095,2.2356412 24.737075,0 19.3424247,0 C8.65989852,0 0,8.76644369 0,19.5804 C0,30.3943563 8.65989852,39.1608 19.3424247,39.1608 Z" id="Oval" stroke="#F4E5DF" stroke-width="1.512"></path>
                        <rect id="Rectangle" fill="#000000" x="30.1644" y="2.1168" width="15.876" height="32.2812"></rect>
                    </g>
                </g>
            </g>
        </g>
    </g>
</svg>